HIERARCHY
ROOT Hips
{
	OFFSET 0.00 0.00 0.00
	CHANNELS 6 Xposition Yposition Zposition Xrotation Yrotation Zrotation
	JOINT Spine
	{
		OFFSET 0.00000 4.88528 0.00000
		CHANNELS 3 Xrotation Yrotation Zrotation
		JOINT Head
		{
			OFFSET 0.00000 16.49416 0.00000
			CHANNELS 3 Xrotation Yrotation Zrotation
			End Site
			{
				OFFSET 0.00000 4.52755 0.00000
			}
		}
		JOINT LeftShoulder
		{
			OFFSET 0.00000 10.66345 0.00000
			CHANNELS 3 Xrotation Yrotation Zrotation
			JOINT LeftArm
			{
				OFFSET 7.53191 0.00000 0.00000
				CHANNELS 3 Xrotation Yrotation Zrotation
				JOINT LeftForeArm
				{
					OFFSET 10.22920 0.00000 0.00000
					CHANNELS 3 Yrotation Zrotation Xrotation
					JOINT LeftHand
					{
						OFFSET 8.67349 0.00000 0.00000
						CHANNELS 3 Xrotation Yrotation Zrotation
						JOINT LeftHandThumb1
						{
							OFFSET 0.00000 0.00000 0.00000
							CHANNELS 3 Xrotation Zrotation Yrotation
							End Site
							{
								OFFSET 0.00000 0.00000 3.93700
							}
						}
						End Site
						{
							OFFSET 3.93700 0.00000 0.00000
						}
					}
				}
			}
		}
		JOINT RightShoulder
		{
			OFFSET 0.00000 10.66345 0.00000
			CHANNELS 3 Xrotation Yrotation Zrotation
			JOINT RightArm
			{
				OFFSET -7.53191 0.00000 0.00000
				CHANNELS 3 Xrotation Yrotation Zrotation
				JOINT RightForeArm
				{
					OFFSET -10.22920 0.00000 0.00000
					CHANNELS 3 Yrotation Zrotation Xrotation
					JOINT RightHand
					{
						OFFSET -8.67349 0.00000 0.00000
						CHANNELS 3 Xrotation Yrotation Zrotation
						JOINT RightHandThumb1
						{
							OFFSET 0.00000 0.00000 0.00000
							CHANNELS 3 Xrotation Zrotation Yrotation
							End Site
							{
								OFFSET 0.00000 0.00000 3.93700
							}
						}
						End Site
						{
							OFFSET -3.93700 0.00000 0.00000
						}
					}
				}
			}
		}
	}
	JOINT LeftUpLeg
	{
		OFFSET 2.67219 0.00000 0.00000
		CHANNELS 3 Xrotation Yrotation Zrotation
		JOINT LeftLeg
		{
			OFFSET 0.00000 -16.26339 0.00000
			CHANNELS 3 Xrotation Yrotation Zrotation
			JOINT LeftFoot
			{
				OFFSET 0.00000 -14.32816 0.00000
				CHANNELS 3 Xrotation Yrotation Zrotation
				JOINT LeftToeBase
				{
					OFFSET 0.00000 -1.30219 4.85985
					CHANNELS 3 Xrotation Yrotation Zrotation
					End Site
					{
						OFFSET 0.00000 0.00000 2.95275
					}
				}
			}
		}
	}
	JOINT RightUpLeg
	{
		OFFSET -2.67219 0.00000 0.00000
		CHANNELS 3 Xrotation Yrotation Zrotation
		JOINT RightLeg
		{
			OFFSET 0.00000 -16.26339 0.00000
			CHANNELS 3 Xrotation Yrotation Zrotation
			JOINT RightFoot
			{
				OFFSET 0.00000 -14.32816 0.00000
				CHANNELS 3 Xrotation Yrotation Zrotation
				JOINT RightToeBase
				{
					OFFSET 0.00000 -1.30219 4.85985
					CHANNELS 3 Xrotation Yrotation Zrotation
					End Site
					{
						OFFSET 0.00000 0.00000 2.95275
					}
				}
			}
		}
	}
}
MOTION
Frames: 22
Frame Time: 0.008333
 8.2357 30.4976 9.0475 86.2133 -33.4072 87.1133 11.5399 -3.0325 -0.4061 -60.2734 -9.2826 3.3413 40.2878 16.6525 7.5786 -43.1270 -29.7365 -88.8237 4.2743 0.0000 7.4722 -0.9266 -10.4104 -5.1147 33.1476 -0.0000 26.2537 9.4470 -1.1976 -17.4397 -3.3591 17.1571 92.3398 6.0837 -0.0000 -7.9718 2.8942 17.0443 -9.7860 32.8623 0.0000 -24.3270 -85.1214 -8.0946 -4.5479 41.6432 -0.0000 -0.0000 -16.0251 15.1014 -6.4225 -9.3637 -0.0000 -0.0000 -86.8113 4.1711 0.9949 41.7939 -0.0000 0.0000 -17.3811 -17.7424 1.4090 -4.2119 0.0000 0.0000
 8.2323 30.4714 9.0607 86.1992 -31.5947 87.6703 7.9115 -3.0661 -1.2293 -58.3217 -9.4581 3.6583 39.0919 16.1886 8.6318 -45.9869 -32.4322 -89.7275 3.9352 0.0000 5.6550 -0.8801 -11.5455 -4.3891 33.1476 -0.0000 26.2537 8.7269 -0.4177 -17.4002 -5.7971 17.2448 92.7457 7.0401 -0.0000 -9.3209 4.5681 18.0899 -14.4297 32.8623 0.0000 -24.3270 -87.2125 -7.9836 -4.9347 42.1560 0.0000 -0.0000 -15.9366 15.5381 -6.3652 -9.2489 0.0000 0.0000 -89.1019 5.1037 1.0439 42.6620 -0.0000 -0.0000 -17.1211 -18.1389 1.6453 -4.3675 -0.0000 -0.0000
 8.0930 30.4509 9.0568 86.0494 -32.5728 87.5020 7.7864 -3.0238 -1.2889 -57.6788 -9.5963 3.9231 37.3524 15.0353 9.1603 -48.7302 -34.8077 -89.8908 3.2772 0.0000 5.1552 -0.7669 -11.6445 -3.7942 33.1476 -0.0000 26.2537 7.3238 0.5216 -16.7484 -8.4811 17.3168 92.3971 7.9572 -0.0000 -11.3022 5.9671 18.6322 -18.1159 32.8623 0.0000 -24.3270 -86.3180 -8.3837 -5.1941 42.8023 0.0000 0.0000 -16.2894 15.8453 -6.1488 -9.1997 -0.0000 -0.0000 -88.1615 5.3540 1.1809 43.3238 0.0000 -0.0000 -17.3738 -18.4940 1.4002 -4.5770 0.0000 -0.0000
 7.9035 30.4151 9.0342 85.7314 -34.5747 86.5186 8.8432 -3.0287 -0.4710 -57.3307 -9.7086 4.0541 35.5822 13.8484 9.4264 -51.6778 -37.4842 -89.9179 2.4099 0.0000 4.0187 -0.7861 -11.6259 -3.8953 33.1476 -0.0000 26.2537 5.7081 1.5859 -15.9404 -11.1564 17.2219 91.5382 9.2618 -0.0000 -13.5201 6.8855 18.7295 -20.6097 32.8623 0.0000 -24.3270 -84.4851 -9.3422 -5.3847 43.7584 -0.0000 -0.0000 -16.8299 15.9385 -5.9760 -9.1886 0.0000 -0.0000 -86.1032 4.7579 1.3231 44.1207 0.0000 0.0000 -17.7668 -18.7678 0.8044 -4.9069 -0.0000 -0.0000
 7.7275 30.3534 8.9970 85.4559 -36.3290 85.3008 9.3763 -2.9248 0.5800 -56.4588 -9.7229 4.2117 33.5649 12.5462 9.9997 -54.3108 -38.7284 -89.9358 1.3340 0.0000 4.3913 -0.9051 -11.1505 -4.6705 33.1476 -0.0000 26.2537 3.9610 2.5234 -15.2086 -13.7600 16.4177 90.5938 10.7928 -0.0000 -14.9714 7.3387 19.5610 -21.0400 32.8623 0.0000 -24.3270 -83.1157 -10.4798 -5.4367 45.1255 -0.0000 -0.0000 -17.3300 15.9194 -6.0539 -9.4615 -0.0000 -0.0000 -84.3844 4.0415 1.6518 45.0490 -0.0000 0.0000 -18.1692 -19.1551 0.3031 -5.2729 -0.0000 -0.0000
 7.5726 30.2558 8.9954 85.2154 -37.8058 85.0243 9.2381 -2.9733 0.5264 -54.8737 -9.8986 4.4427 31.9445 11.7276 10.8961 -57.2150 -39.5569 -90.0096 -0.4723 0.0000 4.4708 -0.7159 -11.9996 -3.4393 33.1476 -0.0000 26.2537 2.0988 3.4689 -14.4983 -16.3280 15.0248 89.8678 12.5542 -0.0000 -14.4266 7.7623 19.9041 -21.8208 32.8623 0.0000 -24.3270 -82.1169 -10.6890 -5.6743 46.7158 0.0000 0.0000 -17.7847 16.0563 -6.0987 -10.0799 0.0000 0.0000 -83.3352 4.1385 1.8205 46.5381 -0.0000 -0.0000 -18.5202 -19.3640 0.0981 -5.8755 0.0000 0.0000
 7.4150 30.1262 8.9927 85.1463 -39.4349 84.8513 9.0799 -2.9241 0.4343 -52.9747 -10.0325 4.6908 30.2605 10.9367 11.9336 -59.5934 -39.2949 -89.6939 -3.3539 0.0000 4.4651 -0.6793 -11.6650 -3.3561 33.1476 -0.0000 26.2537 0.0200 4.3724 -13.8512 -18.7914 13.7293 89.1556 14.8801 0.0000 -12.2131 8.5069 20.2753 -23.3466 32.8623 0.0000 -24.3270 -81.1558 -10.4609 -5.6526 48.8290 -0.0000 0.0000 -18.2165 15.8855 -6.1420 -10.8134 0.0000 0.0000 -82.2910 4.1794 2.1342 48.2600 -0.0000 -0.0000 -18.8667 -19.5102 -0.1720 -6.6753 0.0000 0.0000
 7.2511 29.9673 8.9952 85.0659 -41.1833 84.6224 8.8934 -2.9035 0.4390 -50.7650 -10.1489 4.8504 28.6268 10.2817 13.1110 -61.7768 -37.9995 -89.2914 -6.9211 -0.0000 4.6638 -0.2637 -13.3377 -1.1428 33.1476 -0.0000 26.2537 -2.5187 5.4226 -13.2720 -20.7630 12.2260 88.4251 17.7254 0.0000 -9.1230 9.0091 20.3402 -24.5190 32.8623 0.0000 -24.3270 -80.0834 -10.3340 -5.6351 51.0403 -0.0000 -0.0000 -18.8583 15.7789 -5.9314 -11.2880 0.0000 0.0000 -81.2516 3.9925 2.3873 50.2642 -0.0000 -0.0000 -19.3274 -19.4484 -0.6195 -7.2699 -0.0000 0.0000
 7.0843 29.7799 9.0037 85.0169 -43.0804 84.3934 8.7505 -2.8832 0.5138 -48.3213 -10.1832 4.9328 27.0618 9.7449 14.3493 -63.8482 -35.9192 -88.6866 -11.3004 -0.0000 4.8333 0.4319 -15.1685 1.6503 33.1476 -0.0000 26.2537 -5.1391 6.5164 -12.8711 -22.7993 11.0291 87.6718 20.8256 0.0000 -6.2716 9.4664 20.2062 -25.7685 32.8623 0.0000 -24.3270 -78.9142 -10.2665 -5.5972 53.4096 0.0000 0.0000 -19.5161 15.7314 -6.0117 -12.0692 -0.0000 -0.0000 -80.1456 3.7657 2.6463 52.4774 0.0000 0.0000 -19.6906 -19.3438 -0.6241 -8.4758 -0.0000 0.0000
 6.9139 29.5593 9.0263 84.8888 -45.0174 84.1172 8.5246 -2.9342 0.6615 -45.6257 -10.1228 4.9063 25.5488 9.2897 15.6053 -65.9638 -33.4548 -88.0558 -16.1810 -0.0000 5.7512 0.8040 -15.3849 3.0279 33.1476 -0.0000 26.2537 -7.7963 7.7386 -12.7648 -24.8234 10.0516 86.9073 23.9815 0.0000 -4.1146 9.7180 20.1718 -26.4105 32.8623 0.0000 -24.3270 -77.7172 -10.2877 -5.6554 55.8240 -0.0000 0.0000 -20.2376 15.8535 -6.4242 -13.7114 0.0000 0.0000 -79.0396 3.4907 2.7858 54.8841 0.0000 0.0000 -20.1905 -19.0927 -0.4859 -9.7044 0.0000 0.0000
 6.7465 29.3224 9.0492 84.7809 -47.0339 83.8568 8.3645 -2.9736 0.8169 -42.8754 -10.0296 4.8443 23.9506 8.9361 16.8029 -68.3335 -31.1618 -87.2961 -20.9868 -0.0000 7.5156 1.0773 -15.5556 4.0110 33.1476 -0.0000 26.2537 -10.5569 9.2948 -12.8537 -26.7372 8.9004 85.9653 27.2163 0.0000 -2.0408 9.9121 19.9822 -27.0834 32.8623 0.0000 -24.3270 -76.4153 -10.5246 -5.7717 58.0868 -0.0000 -0.0000 -21.1683 16.2268 -6.7461 -14.4674 0.0000 0.0000 -77.8771 3.1730 2.8800 57.2906 -0.0000 0.0000 -20.6297 -18.7102 -0.0912 -11.2394 -0.0000 -0.0000
 6.5605 29.0507 9.0581 84.8571 -49.3112 83.6010 8.4303 -2.7910 1.0699 -40.1202 -9.9317 4.7841 22.0807 8.6079 18.0362 -70.8439 -29.3964 -86.4108 -25.4232 -0.0000 8.2033 1.5769 -16.0489 5.6867 33.1476 -0.0000 26.2537 -13.1577 10.9262 -13.2275 -28.8324 7.9285 84.8479 30.2958 0.0000 -0.2258 10.1924 20.2863 -27.4096 32.8623 0.0000 -24.3270 -74.8910 -10.6141 -5.5639 60.4436 0.0000 0.0000 -22.3548 16.3612 -6.8817 -14.7815 -0.0000 -0.0000 -76.4500 2.8525 3.2220 59.6198 0.0000 -0.0000 -21.3025 -18.5051 0.2135 -12.4984 0.0000 -0.0000
 6.3506 28.7581 9.0769 84.7130 -51.9198 83.1022 8.8947 -2.6639 1.4823 -37.5787 -9.6848 4.6757 19.9534 8.2567 19.2900 -73.4680 -27.8684 -85.3812 -29.6078 -0.0000 8.3366 2.0840 -16.5916 7.2623 33.1476 -0.0000 26.2537 -15.5531 12.8004 -13.9773 -31.0285 7.0526 83.3718 33.2571 0.0000 0.8715 10.6540 20.2773 -28.4938 32.8623 0.0000 -24.3270 -72.9764 -10.6781 -5.3529 62.6925 0.0000 -0.0000 -23.7200 16.3848 -6.7919 -14.7897 0.0000 0.0000 -74.6119 2.2728 3.4209 61.8534 -0.0000 -0.0000 -22.2049 -18.3141 0.1509 -13.4257 0.0000 -0.0000
 6.1256 28.4591 9.0935 84.6912 -54.5589 82.8210 9.4419 -2.3119 1.6794 -35.3051 -9.6356 4.6669 17.4434 7.7586 20.8456 -75.9584 -26.8343 -84.0889 -33.3386 -0.0000 8.4258 2.5451 -16.8189 8.7336 33.1476 -0.0000 26.2537 -17.8744 14.6451 -15.0061 -33.2006 6.3068 81.5573 36.0675 0.0000 1.3189 11.2479 20.6485 -29.4217 32.8623 0.0000 -24.3270 -70.9207 -10.5379 -5.0418 64.8629 -0.0000 -0.0000 -25.1740 16.5454 -6.9369 -14.9122 -0.0000 -0.0000 -72.7041 1.6602 3.6433 63.9466 0.0000 -0.0000 -23.2024 -18.1364 -0.2707 -14.3249 -0.0000 -0.0000
 5.8929 28.1708 9.1142 84.6469 -57.1137 82.5418 10.0037 -1.8965 1.8574 -33.4046 -9.6434 4.6780 14.6416 7.0360 22.6143 -78.2196 -25.6912 -82.3936 -36.6582 -0.0000 7.5104 3.2853 -17.8322 10.6166 33.1476 -0.0000 26.2537 -20.6003 16.7701 -16.3146 -34.7204 5.4054 79.3622 38.7017 0.0000 1.6130 11.9973 20.9978 -30.6698 32.8623 0.0000 -24.3270 -68.7764 -10.4205 -4.7725 66.7562 -0.0000 0.0000 -26.8399 16.8510 -6.8733 -14.8198 -0.0000 -0.0000 -70.7419 1.0363 3.8836 65.7827 -0.0000 0.0000 -24.3662 -18.0814 -1.1653 -15.1085 0.0000 0.0000
 5.6581 27.9092 9.1271 84.5172 -59.5134 82.1415 10.5437 -1.4438 2.0248 -31.8715 -9.7494 4.8821 12.0765 6.2280 24.5991 -80.7957 -24.2407 -80.3013 -39.5316 -0.0000 5.7736 4.0384 -18.5649 12.5029 33.1476 -0.0000 26.2537 -21.9704 18.2726 -17.9561 -37.6934 5.0154 76.6023 40.9520 0.0000 1.5647 12.8471 20.9517 -32.5290 32.8623 0.0000 -24.3270 -66.6414 -10.2229 -4.4607 68.3587 -0.0000 0.0000 -28.5059 17.2128 -6.6108 -14.7825 0.0000 0.0000 -68.7945 0.3757 4.1666 67.3862 0.0000 0.0000 -25.5402 -18.1911 -2.1282 -15.5592 0.0000 -0.0000
 5.4182 27.7083 9.1387 84.3773 -61.4324 81.8593 10.7574 -0.9898 2.0207 -30.9430 -9.9545 5.1633 9.5703 5.2637 26.8864 -83.0416 -22.6058 -77.7083 -42.4480 -0.0000 3.1811 4.6908 -18.8853 14.2252 33.1476 -0.0000 26.2537 -23.7850 19.8109 -19.6588 -39.9762 4.4178 73.5458 43.0111 0.0000 1.2821 13.5918 21.1273 -33.8525 32.8623 0.0000 -24.3270 -64.7133 -9.9365 -4.2172 69.4691 -0.0000 0.0000 -30.1485 17.6097 -6.1978 -14.3932 -0.0000 -0.0000 -67.0999 -0.1126 4.4267 68.6111 0.0000 -0.0000 -26.6571 -18.4689 -3.3041 -15.8434 -0.0000 -0.0000
 5.1800 27.5866 9.1529 84.1992 -62.6590 81.6683 10.4399 -0.6293 1.8701 -30.5933 -10.2383 5.4864 7.1433 4.1620 29.5438 -84.8868 -20.5893 -74.6351 -45.3253 -0.0000 0.1052 5.7170 -19.5243 16.6757 33.1476 -0.0000 26.2537 -25.2854 21.1036 -21.5134 -42.1769 4.1526 70.1440 45.1355 0.0000 0.1786 14.3422 20.5262 -36.0992 32.8623 0.0000 -24.3270 -63.2858 -9.5196 -4.0722 70.1780 0.0000 -0.0000 -31.3330 17.9179 -5.6394 -14.3297 0.0000 0.0000 -65.8823 -0.3734 4.5722 69.4853 0.0000 -0.0000 -27.4360 -18.7137 -4.2690 -16.2902 -0.0000 -0.0000
 4.9494 27.5491 9.1672 83.9306 -63.4742 81.4228 10.0188 -0.4801 1.7416 -30.9363 -10.4199 5.7542 5.3794 3.5585 32.1927 -87.1544 -18.6255 -70.9860 -48.4161 -0.0000 -3.0719 6.9309 -19.2250 20.2627 33.1476 -0.0000 26.2537 -26.4817 22.3000 -23.5947 -44.5170 3.4154 66.5115 47.3401 0.0000 -1.0213 14.9103 20.7715 -36.8999 32.8623 0.0000 -24.3270 -62.1496 -9.2554 -4.0326 70.5132 0.0000 -0.0000 -31.8571 18.1655 -5.3485 -14.7288 -0.0000 -0.0000 -64.8547 -0.4114 4.6863 69.9371 0.0000 -0.0000 -27.8169 -18.9636 -4.9648 -16.8296 0.0000 -0.0000
 4.7248 27.6124 9.1830 83.4659 -63.8175 80.9909 9.3441 -0.4160 1.6809 -31.7973 -10.6193 5.8461 4.3585 3.1650 34.7489 -89.7910 -16.8985 -66.5214 -51.3852 -0.0000 -6.7089 8.1751 -19.3993 23.3890 33.1476 -0.0000 26.2537 -27.3685 23.3281 -25.9688 -46.8409 2.3493 62.6470 49.4923 0.0000 -1.9374 15.5660 20.8576 -38.0391 32.8623 0.0000 -24.3270 -61.3239 -9.1719 -4.0915 70.3316 0.0000 -0.0000 -31.6673 18.3438 -5.3702 -15.5151 0.0000 0.0000 -64.0426 -0.2513 4.7268 69.8796 -0.0000 0.0000 -27.7066 -19.2094 -5.1763 -17.4296 0.0000 0.0000
 4.5065 27.7792 9.1914 82.9630 -63.8087 80.4911 8.5507 -0.4522 1.6586 -33.0892 -10.8664 5.8298 3.8594 3.2268 37.1349 -93.0139 -15.3260 -61.6841 -53.8753 -0.0000 -10.1341 9.8922 -19.7240 27.3263 33.1476 -0.0000 26.2537 -27.6354 24.0501 -28.5664 -49.5928 0.9926 58.5205 51.7571 0.0000 -2.8997 15.8420 20.5191 -38.9919 32.8623 0.0000 -24.3270 -60.6043 -9.1308 -4.0952 69.5545 -0.0000 -0.0000 -30.9533 18.4294 -5.4762 -16.3770 0.0000 -0.0000 -63.2972 0.0803 4.8307 69.1848 0.0000 -0.0000 -27.0857 -19.5366 -5.2540 -18.6075 0.0000 0.0000
 4.2749 28.0466 9.2065 82.2709 -63.7499 79.8023 7.9238 -0.5299 1.6782 -34.7373 -11.1308 5.7244 4.3298 4.1724 39.1755 -97.5761 -14.2348 -56.7364 -55.5373 -0.0000 -12.4413 12.0683 -19.9499 32.0722 33.1476 -0.0000 26.2537 -27.1539 24.3206 -31.4134 -52.8027 -0.2703 53.9759 53.6975 0.0000 -3.8030 16.1001 20.5140 -39.4766 32.8623 0.0000 -24.3270 -59.5914 -9.1252 -4.1110 68.1203 0.0000 0.0000 -29.8869 18.4995 -5.6790 -17.1518 0.0000 0.0000 -62.2312 0.4788 4.8982 67.8413 -0.0000 0.0000 -26.1318 -19.8598 -5.1704 -19.2440 0.0000 0.0000
